<svg xmlns="http://www.w3.org/2000/svg" xmlns:xlink="http://www.w3.org/1999/xlink" fill="none" version="1.1" width="10" height="10.04833984375" viewBox="0 0 10 10.04833984375"><g><g><path d="M4.89562,0C6.76698,0,8.2903,1.53102,8.2903,3.41114C8.2903,5.084,7.0759,6.48042,5.50282,6.76819L5.50282,7.53999L6.29593,7.53999C6.65962,7.53999,6.95415,7.83877,6.95415,8.2036C6.95415,8.56906,6.65962,8.86752,6.29593,8.86752L5.50282,8.86752L5.50282,9.38677C5.50282,9.75255,5.20579,10.0485,4.8421,10.0485C4.478400000000001,10.0485,4.18106,9.75223,4.18106,9.38677L4.18106,8.86752L3.42582,8.86752C3.06213,8.86752,2.76729,8.56906,2.76729,8.2036C2.76729,7.83877,3.06213,7.53999,3.42582,7.53999L4.18106,7.53999L4.18106,6.74617C2.65023,6.41688,1.5,5.04658,1.5,3.41114C1.5,1.53071,3.02363,0,4.89562,0ZM4.894690000000001,1.32373C3.74946,1.32373,2.81738,2.2597,2.81738,3.41111C2.81738,4.56221,3.74915,5.49881,4.894690000000001,5.49881C6.04054,5.49881,6.972,4.56221,6.972,3.41111C6.972,2.2597,6.04054,1.32373,4.894690000000001,1.32373Z" fill-rule="evenodd" fill="#FF4D4F" fill-opacity="1"/></g></g></svg>