<svg xmlns="http://www.w3.org/2000/svg" xmlns:xlink="http://www.w3.org/1999/xlink" fill="none" version="1.1" width="10" height="10" viewBox="0 0 10 10"><g><g><path d="M8.66567,3.82659L9.99885,3.82659L9.99885,0L6.11041,0L6.11041,1.31715L7.80781,1.31715L6.54679,2.56328C5.86874,2.08682,5.04295,1.80277,4.14844,1.80277C1.86118,1.80277,0,3.64219,0,5.90196C0,8.16172,1.86118,10,4.14844,10C6.43683,10,8.29687,8.16172,8.29687,5.90196C8.29687,4.99943,7.99679,4.16676,7.49513,3.48986L8.66567,2.33307L8.66567,3.82659ZM1.33325,5.90313C1.33325,4.36837,2.59542,3.12109,4.14851,3.12109C5.70045,3.12109,6.96376,4.36837,6.96491,5.90313C6.96491,7.43561,5.70045,8.68403,4.14851,8.68403C2.59657,8.68403,1.33325,7.43675,1.33325,5.90313Z" fill-rule="evenodd" fill="#558CF5" fill-opacity="1"/></g></g></svg>