<svg xmlns="http://www.w3.org/2000/svg" xmlns:xlink="http://www.w3.org/1999/xlink" fill="none" version="1.1" width="20" height="20" viewBox="0 0 20 20"><defs><clipPath id="master_svg0_173_5081"><rect x="0" y="0" width="20" height="20" rx="0"/></clipPath></defs><g clip-path="url(#master_svg0_173_5081)"><g><path d="M14.380796484375,10.6664284375C14.571296484375,10.2854884375,14.475996484375,9.9045084375,14.095096484375,9.7140384375C13.618896484375,9.4283384375,13.142696484375,9.2378684375,12.666496484375,9.0473784375C13.714096484375,8.1902384375,14.475996484375,6.9521484375,14.475996484375,5.4283384375C14.571296484375,2.9521484375,12.475996484375,0.9521484375,9.999856484375,0.9521484375C7.523666484375,0.9521484375,5.4284264843750005,2.9521484375,5.4284264843750005,5.5235784375C5.4284264843750005,6.9521484375,6.095086484375,8.2854884375,7.237936484375,9.0473984375C3.999856484375,10.1902184375,1.618896484375,13.2378484375,1.618896484375,16.9521484375C1.618896484375,17.3330484375,1.904619484375,17.7140484375,2.380810484375,17.7140484375C2.857006484375,17.7140484375,3.1427264843750002,17.4283484375,3.1427264843750002,16.9521484375C3.1427264843750002,13.1425484375,6.285576484375,10.0949784375,9.999856484375,10.0949784375C11.237936484375,10.0949784375,12.380796484375,10.3807084375,13.428396484375,11.0473484375C13.809396484375,11.1425484375,14.190296484375,11.0473484375,14.380796484375,10.6664284375L14.380796484375,10.6664284375ZM6.952236484375,5.5235984375C6.952236484375,3.8093184375,8.285576484375,2.3807384375,9.999856484375,2.3807384375C11.714096484375,2.3807384375,13.047496484375,3.8093184375,13.047496484375,5.4283584375C13.047496484375,7.0473984375,11.714096484375,8.5711884375,9.999856484375,8.5711884375C8.285576484375,8.5711884375,6.952236484375,7.1426184375,6.952236484375,5.5235984375Z" fill="#11BD8C" fill-opacity="1"/></g><g><path d="M10.9523436875,13.80978671875L18.5713896875,13.80978671875C18.8571096875,13.80978671875,19.142809687499998,13.61929671875,19.238049687500002,13.33359671875C19.333299687500002,13.04786671875,19.333299687500002,12.76216671875,19.0475796875,12.57167671875L17.142809687499998,10.66691371875C16.8571096875,10.38121131875,16.3808996875,10.38121131875,16.0951996875,10.66691371875C15.809489687500001,10.95261671875,15.809489687500001,11.42882871875,16.0951996875,11.71452671875L16.7618796875,12.38120671875L10.9523436875,12.38120671875C10.5713866875,12.38120671875,10.1904296875,12.66691671875,10.1904296875,13.14312671875C10.1904296875,13.61933671875,10.5713866875,13.80978671875,10.9523436875,13.80978671875ZM18.5713896875,15.23833671875L10.9523436875,15.23833671875C10.6666206875,15.23833671875,10.3809176875,15.428826718749999,10.2856838875,15.714526718750001C10.1904499531,16.00023671875,10.1904296875,16.28597671875,10.4761526875,16.47644671875L12.3809196875,18.38120671875C12.4761496875,18.476446718749997,12.666619687499999,18.57167671875,12.8570896875,18.57167671875C13.0475596875,18.57167671875,13.2380496875,18.476446718749997,13.3332996875,18.38120671875C13.6189996875,18.09548671875,13.6189996875,17.61929671875,13.3332996875,17.33359671875L12.666619687499999,16.66691671875L18.5713896875,16.66691671875C18.9523396875,16.66691671875,19.333299687500002,16.38120671875,19.333299687500002,15.904996718749999C19.333299687500002,15.42878671875,18.9523396875,15.23833671875,18.5713896875,15.23833671875Z" fill="#11BD8C" fill-opacity="1"/></g></g></svg>