<svg xmlns="http://www.w3.org/2000/svg" xmlns:xlink="http://www.w3.org/1999/xlink" fill="none" version="1.1" width="24" height="24" viewBox="0 0 24 24"><g><g><g><path d="M10.25002,2.5C9.45664,2.5,8.786570000000001,3.027958,8.57198,3.75171C8.35093,3.75525,8.17359,3.76595,8.01229,3.7980400000000003C7.02057,3.9953000000000003,6.245322,4.77055,6.0480554,5.76227C5.999838676,6.0046800000000005,5.9999077585,6.28332,6.00000908645,6.69212C6.00000908645,6.69212,6.0000183252,15.5374,6.0000183252,15.5374C6.0000070599,16.6842,6.0000000074582,17.5957,6.0960063,18.3098C6.19499,19.046,6.404197,19.6468,6.878698,20.1213C7.3532,20.5958,7.95399,20.805,8.69022,20.904C9.40431,21,10.31583,21,11.462579999999999,21C11.462579999999999,21,12.53744,21,12.53744,21C13.6842,21,14.59573,21,15.30982,20.904C16.0461,20.805,16.6468,20.5958,17.121299999999998,20.1213C17.5958,19.6468,17.805,19.046,17.904,18.3098C18,17.5957,18,16.6842,18,15.5374C18,15.5374,18,6.69213,18,6.69213C18.0001,6.283329999999999,18.0002,6.00467,17.951999999999998,5.76227C17.7547,4.77055,16.9795,3.9953000000000003,15.98774,3.7980400000000003C15.82645,3.76595,15.64911,3.75525,15.42806,3.75171C15.21347,3.027958,14.5434,2.5,13.75002,2.5C13.75002,2.5,10.25002,2.5,10.25002,2.5C10.25002,2.5,10.25002,2.5,10.25002,2.5ZM9.50002,4.25C9.50002,3.8357900000000003,9.835799999999999,3.5,10.25002,3.5C10.25002,3.5,13.75002,3.5,13.75002,3.5C14.16423,3.5,14.50002,3.8357900000000003,14.50002,4.25C14.50002,4.664210000000001,14.16423,5,13.75002,5C13.75002,5,10.25002,5,10.25002,5C9.835799999999999,5,9.50002,4.664210000000001,9.50002,4.25C9.50002,4.25,9.50002,4.25,9.50002,4.25ZM9.53236,13.9655C9.53236,13.9655,10.373660000000001,11.16119,10.373660000000001,11.16119C10.373660000000001,11.16119,11.385200000000001,16.8933,11.385200000000001,16.8933C11.50712,17.5841,12.485759999999999,17.618499999999997,12.655899999999999,16.9379C12.655899999999999,16.9379,13.39039,14,13.39039,14C13.39039,14,15.5,14,15.5,14C15.77614,14,16,13.7761,16,13.5C16,13.2239,15.77614,13,15.5,13C15.5,13,13.19519,13,13.19519,13C12.851040000000001,13,12.55106,13.2342,12.467590000000001,13.5681C12.467590000000001,13.5681,12.08437,15.101,12.08437,15.101C12.08437,15.101,11.10221,9.5354,11.10221,9.5354C10.98316,8.860800000000001,10.036349999999999,8.80545,9.83951,9.46158C9.83951,9.46158,8.62798,13.5,8.62798,13.5C8.62798,13.5,8.5,13.5,8.5,13.5C8.22386,13.5,8,13.7239,8,14C8,14.2761,8.22386,14.5,8.5,14.5C8.5,14.5,8.81399,14.5,8.81399,14.5C9.145199999999999,14.5,9.437190000000001,14.2828,9.53236,13.9655C9.53236,13.9655,9.53236,13.9655,9.53236,13.9655Z" fill-rule="evenodd" fill="#0DBD5C" fill-opacity="1"/></g><g></g></g></g></svg>