<svg xmlns="http://www.w3.org/2000/svg" xmlns:xlink="http://www.w3.org/1999/xlink" fill="none" version="1.1" width="12" height="12" viewBox="0 0 12 12"><defs><clipPath id="master_svg0_173_5095"><rect x="0" y="0" width="12" height="12" rx="0"/></clipPath></defs><g clip-path="url(#master_svg0_173_5095)"><g><path d="M9.714579453125,10.4776846875L2.228799453125,10.4776846875C1.4020354531249999,10.4776846875,0.731689453125,9.8075446875,0.731689453125,8.9805846875L0.731689453125,7.1091246875C0.731689453125,6.9024646875,0.899371453125,6.7349046875,1.105895453125,6.7349046875L1.854599453125,6.7349046875C2.061249453125,6.7349046875,2.228799453125,6.9024646875,2.228799453125,7.1091246875L2.228799453125,8.2320346875C2.228799453125,8.645494687500001,2.563919453125,8.9806046875,2.977359453125,8.9806046875L8.966029453125,8.9806046875C9.379479453125,8.9806046875,9.714579453125,8.645494687500001,9.714579453125,8.2320346875L9.714579453125,7.1091246875C9.714579453125,6.9024646875,9.882149453125,6.7349046875,10.088919453125,6.7349046875L10.837489453125,6.7349046875C11.044189453125,6.7349046875,11.211689453125,6.9024646875,11.211689453125,7.1091246875L11.211689453125,8.9806046875C11.211689453125,9.8075446875,10.541489453125,10.4776846875,9.714579453125,10.4776846875ZM2.928999453125,3.1345346875C3.080419453125,2.9831446875,3.326079453125,2.9831446875,3.477519453125,3.1345346875L5.223269453125,4.8803046875L5.223269453125,1.1116906874999999C5.223269453125,0.9050346874999999,5.390859453125,0.7373046875,5.597489453125,0.7373046875L6.346029453125,0.7373046875C6.552719453125,0.7373046875,6.720389453125,0.9050346874999999,6.720389453125,1.1116906874999999L6.720389453125,4.8803046875L8.466149453125,3.1345346875C8.617569453125,2.9831446875,8.863129453125,2.9831446875,9.014549453125,3.1345346875L9.563149453125,3.6831946875C9.714569453125,3.8346246875,9.714569453125,4.0801546875,9.563149453125,4.2317146875L6.471839453125,7.3230646875C6.458469453125,7.3363946875,6.217959453125,7.4834146875,5.975949453125,7.4835246875C5.731299453125,7.4836446875,5.485179453125,7.3365546875,5.471799453125,7.3230646875L2.380359453125,4.2317146875C2.228919453125,4.0801446875,2.228919453125,3.8346246875,2.380359453125,3.6831946875L2.928999453125,3.1345346875Z" fill="#519E82" fill-opacity="1"/></g></g></svg>