<svg xmlns="http://www.w3.org/2000/svg" xmlns:xlink="http://www.w3.org/1999/xlink" fill="none" version="1.1" width="24" height="24" viewBox="0 0 24 24"><g><g><g><path d="M6,7.5C5.50854,7.5,5.094798,7.666846,4.802696,7.958948C4.515299,8.246345999999999,4.375,8.62632,4.375,9C4.375,9.37368,4.515299,9.75366,4.802697,10.04105C5.094798,10.33316,5.50854,10.5,6,10.5C6,10.5,8.00052,10.5,8.00052,10.5C8.27843,10.5,8.5,10.7224,8.5,10.99677C8.5,10.99677,8.5,20.5,8.5,20.5C8.5,20.991500000000002,8.66684,21.4052,8.95895,21.6973C9.24634,21.9847,9.62632,22.125,10,22.125C10.37368,22.125,10.75366,21.9847,11.04105,21.6973C11.33316,21.4052,11.5,20.991500000000002,11.5,20.5C11.5,19.743000000000002,11.50079,18.6523,11.62061,17.7536C11.68116,17.299509999999998,11.76712,16.9373,11.87585,16.70172C11.932839999999999,16.57825,11.97643,16.527189999999997,12,16.5073C12.02356,16.527189999999997,12.067160000000001,16.57825,12.12415,16.70172C12.23288,16.9373,12.31884,17.299509999999998,12.37939,17.7536C12.49921,18.6523,12.5,19.743000000000002,12.5,20.5C12.5,20.991500000000002,12.66685,21.4052,12.95895,21.6973C13.24634,21.9847,13.62632,22.125,14,22.125C14.37368,22.125,14.7537,21.9847,15.0411,21.6973C15.3332,21.4052,15.5,20.991500000000002,15.5,20.5C15.5,20.5,15.5,11,15.5,11C15.5,10.72386,15.7239,10.5,16,10.5C16,10.5,18,10.5,18,10.5C18.491500000000002,10.5,18.9052,10.33316,19.1973,10.04105C19.4847,9.75366,19.625,9.37368,19.625,9C19.625,8.62632,19.4847,8.246344,19.1973,7.958947C18.9052,7.666845,18.491500000000002,7.5,18,7.5C18,7.5,6,7.5,6,7.5C6,7.5,6,7.5,6,7.5ZM12.01961,16.495820000000002C12.01961,16.495820000000002,12.01697,16.498060000000002,12.01113,16.49911C12.0166,16.49577,12.01961,16.495820000000002,12.01961,16.495820000000002C12.01961,16.495820000000002,12.01961,16.495820000000002,12.01961,16.495820000000002ZM11.98887,16.49911C11.98303,16.498060000000002,11.98039,16.495820000000002,11.98039,16.495820000000002C11.98039,16.495820000000002,11.9834,16.49578,11.98887,16.49911C11.98887,16.49911,11.98887,16.49911,11.98887,16.49911Z" fill-rule="evenodd" fill="#0DBD5C" fill-opacity="1"/></g><g><path d="M12,2C10.61929,2,9.5,3.11929,9.5,4.5C9.5,5.8807100000000005,10.61929,7,12,7C13.38071,7,14.5,5.8807100000000005,14.5,4.5C14.5,3.11929,13.38071,2,12,2C12,2,12,2,12,2Z" fill="#0DBD5C" fill-opacity="1"/></g><g></g></g></g></svg>